<mxfile host="app.diagrams.net" modified="2024-04-28T20:58:22.645Z" agent="Mozilla/5.0 (Windows NT 10.0; Win64; x64) AppleWebKit/537.36 (KHTML, like Gecko) Chrome/122.0.0.0 YaBrowser/24.4.0.0 Safari/537.36" etag="H5weTovdj0eJIOiaEhlw" version="24.3.1" type="device">
  <diagram name="Страница — 1" id="mbxkLfZeXVdVAPx6zKYd">
    <mxGraphModel dx="1050" dy="575" grid="1" gridSize="10" guides="1" tooltips="1" connect="1" arrows="1" fold="1" page="1" pageScale="1" pageWidth="827" pageHeight="1169" math="0" shadow="0">
      <root>
        <mxCell id="0" />
        <mxCell id="1" parent="0" />
        <mxCell id="jdfufeVV8sYFO4tM5k_H-3" style="edgeStyle=orthogonalEdgeStyle;rounded=0;orthogonalLoop=1;jettySize=auto;html=1;" edge="1" parent="1" source="jdfufeVV8sYFO4tM5k_H-2">
          <mxGeometry relative="1" as="geometry">
            <mxPoint x="414" y="160" as="targetPoint" />
          </mxGeometry>
        </mxCell>
        <mxCell id="jdfufeVV8sYFO4tM5k_H-2" value="Начало" style="ellipse;whiteSpace=wrap;html=1;" vertex="1" parent="1">
          <mxGeometry x="344" y="20" width="140" height="70" as="geometry" />
        </mxCell>
        <mxCell id="jdfufeVV8sYFO4tM5k_H-6" style="edgeStyle=orthogonalEdgeStyle;rounded=0;orthogonalLoop=1;jettySize=auto;html=1;entryX=0.5;entryY=0;entryDx=0;entryDy=0;" edge="1" parent="1" source="jdfufeVV8sYFO4tM5k_H-4" target="jdfufeVV8sYFO4tM5k_H-5">
          <mxGeometry relative="1" as="geometry" />
        </mxCell>
        <mxCell id="jdfufeVV8sYFO4tM5k_H-4" value="На этапе написания программы пользователь задаёт массив" style="html=1;whiteSpace=wrap;" vertex="1" parent="1">
          <mxGeometry x="344" y="160" width="141" height="90" as="geometry" />
        </mxCell>
        <mxCell id="jdfufeVV8sYFO4tM5k_H-7" style="edgeStyle=orthogonalEdgeStyle;rounded=0;orthogonalLoop=1;jettySize=auto;html=1;" edge="1" parent="1" source="jdfufeVV8sYFO4tM5k_H-5">
          <mxGeometry relative="1" as="geometry">
            <mxPoint x="414.5" y="450" as="targetPoint" />
          </mxGeometry>
        </mxCell>
        <mxCell id="jdfufeVV8sYFO4tM5k_H-5" value="Создание нового массива, который включает в себя только те элементы исходного массива, чья длина меньше трёх" style="html=1;whiteSpace=wrap;" vertex="1" parent="1">
          <mxGeometry x="344" y="300" width="141" height="90" as="geometry" />
        </mxCell>
        <mxCell id="jdfufeVV8sYFO4tM5k_H-11" style="edgeStyle=orthogonalEdgeStyle;rounded=0;orthogonalLoop=1;jettySize=auto;html=1;entryX=0.5;entryY=1;entryDx=0;entryDy=0;" edge="1" parent="1" source="jdfufeVV8sYFO4tM5k_H-8" target="jdfufeVV8sYFO4tM5k_H-12">
          <mxGeometry relative="1" as="geometry">
            <mxPoint x="580" y="610" as="targetPoint" />
            <Array as="points">
              <mxPoint x="585" y="655" />
            </Array>
          </mxGeometry>
        </mxCell>
        <mxCell id="jdfufeVV8sYFO4tM5k_H-15" style="edgeStyle=orthogonalEdgeStyle;rounded=0;orthogonalLoop=1;jettySize=auto;html=1;" edge="1" parent="1" source="jdfufeVV8sYFO4tM5k_H-8">
          <mxGeometry relative="1" as="geometry">
            <mxPoint x="415" y="820" as="targetPoint" />
          </mxGeometry>
        </mxCell>
        <mxCell id="jdfufeVV8sYFO4tM5k_H-8" value="Все ли выведены элемента выходного&amp;nbsp;&lt;div&gt;массива?&lt;/div&gt;" style="rhombus;whiteSpace=wrap;html=1;" vertex="1" parent="1">
          <mxGeometry x="341.25" y="585" width="147.5" height="140" as="geometry" />
        </mxCell>
        <mxCell id="jdfufeVV8sYFO4tM5k_H-10" style="edgeStyle=orthogonalEdgeStyle;rounded=0;orthogonalLoop=1;jettySize=auto;html=1;entryX=0.5;entryY=0;entryDx=0;entryDy=0;" edge="1" parent="1" source="jdfufeVV8sYFO4tM5k_H-9" target="jdfufeVV8sYFO4tM5k_H-8">
          <mxGeometry relative="1" as="geometry" />
        </mxCell>
        <mxCell id="jdfufeVV8sYFO4tM5k_H-9" value="Вывод текущего элемента из&amp;nbsp; выходного массиве" style="rounded=0;whiteSpace=wrap;html=1;" vertex="1" parent="1">
          <mxGeometry x="338.75" y="440" width="150" height="80" as="geometry" />
        </mxCell>
        <mxCell id="jdfufeVV8sYFO4tM5k_H-13" style="edgeStyle=orthogonalEdgeStyle;rounded=0;orthogonalLoop=1;jettySize=auto;html=1;entryX=1;entryY=0.5;entryDx=0;entryDy=0;" edge="1" parent="1" source="jdfufeVV8sYFO4tM5k_H-12" target="jdfufeVV8sYFO4tM5k_H-9">
          <mxGeometry relative="1" as="geometry">
            <Array as="points">
              <mxPoint x="580" y="480" />
            </Array>
          </mxGeometry>
        </mxCell>
        <mxCell id="jdfufeVV8sYFO4tM5k_H-12" value="Переход к следующему массиву" style="rounded=0;whiteSpace=wrap;html=1;" vertex="1" parent="1">
          <mxGeometry x="510" y="530" width="150" height="80" as="geometry" />
        </mxCell>
        <mxCell id="jdfufeVV8sYFO4tM5k_H-14" value="Нет" style="text;html=1;align=center;verticalAlign=middle;resizable=0;points=[];autosize=1;strokeColor=none;fillColor=none;" vertex="1" parent="1">
          <mxGeometry x="500" y="628" width="40" height="30" as="geometry" />
        </mxCell>
        <mxCell id="jdfufeVV8sYFO4tM5k_H-16" value="Да" style="text;html=1;align=center;verticalAlign=middle;resizable=0;points=[];autosize=1;strokeColor=none;fillColor=none;" vertex="1" parent="1">
          <mxGeometry x="414" y="760" width="40" height="30" as="geometry" />
        </mxCell>
        <mxCell id="jdfufeVV8sYFO4tM5k_H-17" value="Конец" style="ellipse;whiteSpace=wrap;html=1;" vertex="1" parent="1">
          <mxGeometry x="344" y="820" width="140" height="70" as="geometry" />
        </mxCell>
      </root>
    </mxGraphModel>
  </diagram>
</mxfile>
